# xmcd CD database file
#
# Track frame offsets:
#	182
#	17307
#	33142
#	49865
#	69100
#	93370
#	113457
#	129230
#	144645
#	159837
#	176030
#
# Disc length: 2583 seconds
#
# Revision: 0
# Processed by: cddbd v1.5.2PL0 Copyright (c) Steve Scherf et al.
# Submitted via: CDex 1.70beta2
#
DISCID=780a150b
DTITLE=Jay McShann - The Definitive Black and Blue Sessions
DYEAR=1900
DGENRE=Jazz
TTITLE0=Kansas City
TTITLE1=Roll'Em
TTITLE2=Our Kinda Blues
TTITLE3=Rollin' with Roland
TTITLE4=Stompin' in K.C.
TTITLE5=After Hours
TTITLE6=Hootie Blues
TTITLE7=Four Days Rider
TTITLE8=Hands Off
TTITLE9=Hootie Ignorant Oil
TTITLE10=Confessin' the Blues
EXTD=
EXTT0=
EXTT1=
EXTT2=
EXTT3=
EXTT4=
EXTT5=
EXTT6=
EXTT7=
EXTT8=
EXTT9=
EXTT10=
PLAYORDER=
